<?xml version="1.0" encoding="UTF-8" standalone="no"?>
<svg width="512px" height="512px" viewBox="0 0 512 512" version="1.1" xmlns="http://www.w3.org/2000/svg" xmlns:xlink="http://www.w3.org/1999/xlink">
    <!-- Generator: Sketch Beta 3.6 (26304) - http://www.bohemiancoding.com/sketch -->
    <title>Roger-512</title>
    <desc>Created with Sketch Beta.</desc>
    <defs>
        <path d="M0,45.0018459 C0,20.1480127 20.1497861,0 45.0018459,0 L466.998154,0 C491.851987,0 512,20.1497861 512,45.0018459 L512,466.998154 C512,491.851987 491.850214,512 466.998154,512 L45.0018459,512 C20.1480127,512 0,491.850214 0,466.998154 L0,45.0018459 Z M255.803636,286.020075 C152.736842,286.145144 114.493418,245.801017 114.5,269.481821 C114.521793,347.895437 177.578313,412 256,412 C334.421687,412 397.5,347.895438 397.5,269.481821 C397.5,245.801017 361.262886,285.892102 255.803636,286.020075 Z" id="path-1"></path>
    </defs>
    <g id="Brand_Assets" stroke="none" stroke-width="1" fill="none" fill-rule="evenodd">
        <g id="Roger-512">
            <g id="Group">
                <g id="Combined-Shape">
                    <use fill="#FFFFFF" fill-rule="evenodd" xlink:href="#path-1"></use>
                    <use fill="none" xlink:href="#path-1"></use>
                    <use fill="none" xlink:href="#path-1"></use>
                </g>
            </g>
        </g>
    </g>
</svg>