<?xml version="1.0" encoding="UTF-8" standalone="no"?>
<svg width="139px" height="139px" viewBox="0 0 139 139" version="1.1" xmlns="http://www.w3.org/2000/svg" xmlns:xlink="http://www.w3.org/1999/xlink" xmlns:sketch="http://www.bohemiancoding.com/sketch/ns">
    <!-- Generator: Sketch Beta 3.4 (14861) - http://www.bohemiancoding.com/sketch -->
    <title>Rectangle 2</title>
    <desc>Created with Sketch Beta.</desc>
    <defs></defs>
    <g id="Busines-Cards" stroke="none" stroke-width="1" fill="none" fill-rule="evenodd" sketch:type="MSPage">
        <g id="Artboard-11" sketch:type="MSArtboardGroup" transform="translate(-15.000000, -60.000000)" fill="#FFFFFF">
            <g id="Rectangle-2-+-Path" sketch:type="MSLayerGroup" transform="translate(15.000000, 60.000000)">
                <path d="M0,17.0093452 C0,7.61534325 7.60911967,0 17.0093452,0 L121.990655,0 C131.384657,0 139,7.60911967 139,17.0093452 L139,121.990655 C139,131.384657 131.39088,139 121.990655,139 L17.0093452,139 C7.61534325,139 0,131.39088 0,121.990655 L0,17.0093452 Z M69.6533502,73.4618677 C39.7894737,73.4943282 29,67.9811358 29,69.1695399 C29,89.5209596 47.2771084,106.158617 70,106.158617 C92.7228916,106.158617 111,89.5209596 111,69.1695399 C111,67.9811358 100.210447,73.4286538 69.6533502,73.4618677 Z" id="Rectangle-2" sketch:type="MSShapeGroup"></path>
            </g>
        </g>
    </g>
</svg>